PathFileType	4	(X/Y/Z)	C:\Git\research_data\Projects\torsion_deformities_healthy_kinematics\simulations\P01\pre\dynamic07_l\marker_experimental.trc
DataRate	CameraRate	NumFrames	NumMarkers	Units	OrigDataRate	OrigDataStartFrame	OrigNumFrames
200	200	7	34	mm	200	301	802
Frame#	Time	C7			T10			CLAV			STRN			RBAK			LASI			RASI			SACR			LT1			LT2			LT3			LS1			LS2			LS3			LHEE			LTOE			RT1			RT2			RT3			RS1			RS2			RS3			RHEE			RTOE			LKNE			LANK			RKNE			RANK			LAJC			LKJC			RAJC			RKJC			RHJC			LHJC		
		X1	Y1	Z1	X2	Y2	Z2	X3	Y3	Z3	X4	Y4	Z4	X5	Y5	Z5	X6	Y6	Z6	X7	Y7	Z7	X8	Y8	Z8	X9	Y9	Z9	X10	Y10	Z10	X11	Y11	Z11	X12	Y12	Z12	X13	Y13	Z13	X14	Y14	Z14	X15	Y15	Z15	X16	Y16	Z16	X17	Y17	Z17	X18	Y18	Z18	X19	Y19	Z19	X20	Y20	Z20	X21	Y21	Z21	X22	Y22	Z22	X23	Y23	Z23	X24	Y24	Z24	X25	Y25	Z25	X26	Y26	Z26	X27	Y27	Z27	X28	Y28	Z28	X29	Y29	Z29	X30	Y30	Z30	X31	Y31	Z31	X32	Y32	Z32	X33	Y33	Z33	X34	Y34	Z34	

301	1.500000	-762.541626	1022.915222	334.242096	-790.723206	849.779419	335.418488	-647.185791	987.490173	348.630402	-599.244019	857.084534	351.546753	-795.102722	964.197693	418.412964	-671.647400	681.220337	241.196808	-658.705139	688.767151	456.793701	-809.576355	739.255615	355.005402	-732.341248	494.853119	213.664062	-809.052979	435.368103	214.455505	-676.489807	387.064636	243.312622	-808.804321	255.959335	222.197266	-917.633728	205.036011	193.914413	-788.466736	162.139740	239.948029	-935.402954	58.140770	258.275177	-796.865540	43.823441	276.120850	-668.593445	530.904358	502.575531	-698.437866	439.992859	488.137024	-560.352417	478.569794	495.141357	-599.689697	298.541046	489.238098	-691.402893	217.147934	506.185516	-550.069336	217.032944	480.437225	-652.727051	57.142418	442.273224	-511.208221	65.345291	427.734924	-782.877808	349.080536	240.455048	-887.393738	47.366531	237.484802	-599.514038	375.656128	476.400543	-608.991272	61.034092	471.942322	-888.937134	45.509384	271.294952	-777.682190	340.570862	290.964996	-608.567871	66.392426	435.460846	-594.047424	375.504791	422.851196	-730.824792	633.401855	433.550206	-740.241012	627.911124	276.691380	
302	1.505000	-755.732361	1021.845886	334.728577	-783.985229	848.718323	335.704376	-640.278076	986.209167	349.328613	-592.532532	855.737915	352.138824	-788.387085	963.207275	418.711182	-665.701172	679.688477	241.364807	-652.363953	687.462341	457.421356	-803.007629	738.303833	355.462524	-727.669800	494.115662	214.088028	-804.786133	435.229950	215.033539	-672.540833	385.850403	243.444336	-806.295227	255.855255	222.658020	-915.498474	206.081955	194.244858	-786.927368	161.812836	240.337387	-935.077087	59.354130	258.652863	-796.642456	43.801365	276.223724	-662.273376	529.515381	502.575592	-692.339417	438.731140	487.733551	-554.200867	477.017487	494.459015	-590.697388	298.281006	489.004669	-679.066711	213.699280	507.386261	-538.122559	218.553055	480.370758	-634.892090	54.235462	443.731171	-493.560120	67.857056	428.984131	-779.187134	348.682556	240.855988	-886.905945	48.017010	237.695847	-593.622437	374.269958	475.280548	-591.113464	60.464088	473.572327	-888.500122	46.146988	271.502930	-773.902832	340.073792	291.339935	-591.215088	65.549019	437.049438	-588.350098	374.407440	421.711670	-724.733575	632.181708	434.279268	-734.435109	626.526976	277.119072	
303	1.510000	-748.914062	1020.737122	335.291077	-777.218689	847.615051	336.052612	-633.352234	984.907043	350.074585	-585.784790	854.393616	352.784027	-781.633911	962.176575	419.103485	-659.621338	678.187622	241.579300	-645.974976	686.124695	458.056671	-796.383240	737.330322	355.917450	-723.011169	493.419952	214.448196	-800.519653	435.138672	215.641037	-668.569946	384.670959	243.356567	-803.716919	255.780060	223.053391	-913.343384	207.205231	194.564178	-785.340515	161.517593	240.647232	-934.716003	60.648361	258.938904	-796.395386	43.784885	276.301788	-655.950134	528.060303	502.596344	-686.275024	437.413757	487.379700	-548.072327	475.363373	493.790558	-581.764954	298.008545	488.781525	-666.709900	210.516724	508.749573	-526.393372	220.099396	480.205688	-617.414246	51.655132	445.113739	-476.419006	70.594673	430.114014	-775.466309	348.318237	241.193283	-886.434509	48.755444	237.871460	-587.795044	372.792511	474.207825	-573.532654	60.221798	475.183380	-888.061218	46.871239	271.676208	-770.012085	339.578796	291.636688	-574.204285	65.004204	438.625671	-582.726135	373.204407	420.620758	-718.576263	630.938548	434.979233	-728.500783	625.166193	277.542836	
304	1.515000	-742.088318	1019.594360	335.930420	-770.422241	846.475159	336.462891	-626.410522	983.594360	350.869812	-578.998718	853.062866	353.485016	-774.843384	961.110840	419.589874	-653.399353	676.732910	241.840256	-639.529053	684.759338	458.694305	-789.698853	736.338562	356.370819	-718.346497	492.765564	214.744781	-796.242188	435.097717	216.268082	-664.574524	383.521912	243.058044	-801.074524	255.736603	223.371704	-911.180237	208.412445	194.873917	-783.708801	161.256653	240.860458	-934.314819	62.028049	259.124573	-796.119995	43.775307	276.352295	-649.608887	526.550232	502.643372	-680.218506	436.047882	487.083466	-541.944153	473.633179	493.150330	-572.899658	297.716553	488.572113	-654.397156	207.614563	510.224182	-514.909180	221.636230	479.955261	-600.382446	49.384682	446.391937	-459.860382	73.497070	431.110779	-771.716309	347.992401	241.460663	-885.985596	49.588688	238.004272	-581.995056	371.242493	473.198853	-556.345764	60.269367	476.739197	-887.621765	47.687157	271.807587	-766.019836	339.088928	291.848572	-557.614685	64.722939	440.155792	-577.135559	371.912964	419.594971	-712.340667	629.676566	435.643618	-722.426363	623.840202	277.959649	
305	1.520000	-735.256531	1018.423218	336.646851	-763.594788	845.304077	336.934387	-619.455017	982.281372	351.715424	-572.172546	851.755737	354.243744	-768.015930	960.015198	420.169922	-647.029358	675.338440	242.147018	-633.017456	683.371094	459.329407	-782.951111	735.331299	356.823517	-713.653259	492.150330	214.979568	-791.937378	435.106781	216.903442	-660.546387	382.400024	242.561966	-798.367432	255.725311	223.604034	-909.008362	209.707764	195.168350	-782.031067	161.030502	240.965973	-933.867432	63.499371	259.203918	-795.811401	43.773487	276.373566	-643.234985	524.996155	502.720978	-674.142883	434.640656	486.849884	-535.792114	471.852600	492.551331	-564.110901	297.395294	488.378723	-642.202393	204.993286	511.751038	-503.697479	223.123093	479.635498	-583.884033	47.400543	447.541718	-443.955200	76.491142	431.960236	-767.931396	347.707275	241.652222	-885.557861	50.520283	238.084930	-576.183411	369.639374	472.266754	-539.654053	60.554619	478.201691	-887.179260	48.596912	271.887695	-761.931519	338.605469	291.969421	-541.527893	64.659645	441.603516	-571.535889	370.551941	418.647675	-706.015299	628.399161	436.267134	-716.202505	622.559105	278.366963	
306	1.525000	-728.420105	1017.229431	337.440033	-756.735657	844.107483	337.465790	-612.487915	980.977783	352.612213	-565.304749	850.481445	355.061310	-761.152161	958.894653	420.842438	-640.507874	674.016785	242.498520	-626.432129	681.964844	459.957581	-776.137573	734.310608	357.276428	-708.905457	491.570465	215.156036	-787.584290	435.161530	217.535065	-656.471375	381.303284	241.885345	-795.588379	255.743835	223.744766	-906.813843	211.092468	195.435287	-780.301758	160.837357	240.959198	-933.365784	65.070381	259.174194	-795.464600	43.779579	276.365295	-636.813904	523.408752	502.831909	-668.021667	433.199402	486.680878	-529.591675	470.046356	492.004669	-555.409363	297.032867	488.202087	-630.205322	202.639511	513.267029	-492.785034	224.516296	479.263794	-568.002686	45.673695	448.545074	-428.767303	79.493408	432.647614	-764.099426	347.462585	241.762299	-885.141907	51.550358	238.102737	-570.321228	368.002228	471.421051	-523.560791	61.012249	479.533173	-886.726868	49.599892	271.905701	-757.747437	338.127594	291.993500	-526.026978	64.759186	442.931702	-565.884460	369.140442	417.788391	-699.589584	627.109354	436.845715	-709.822008	621.331478	278.762905	
307	1.530000	-721.580383	1016.018799	338.309052	-749.844482	842.891235	338.055359	-605.511108	979.692505	353.560486	-558.394348	849.247986	355.937805	-754.252625	957.754211	421.605774	-633.834167	672.778564	242.893448	-619.766052	680.545593	460.574982	-769.257019	733.278381	357.730438	-704.074402	491.020416	215.279327	-783.157288	435.253601	218.150421	-652.328796	380.230682	241.048615	-792.723633	255.786896	223.791748	-904.570923	212.564957	195.657806	-778.511108	160.673141	240.842239	-932.799744	66.751152	259.036469	-795.074463	43.792812	276.328827	-630.332031	521.798706	502.977203	-661.830200	431.731689	486.574860	-523.319458	468.237305	491.519104	-546.806152	296.616028	488.041138	-618.487366	200.527298	514.709229	-482.196472	225.770645	478.857178	-552.815979	44.171417	449.390350	-414.351196	82.412407	433.157837	-760.200562	347.254608	241.785812	-884.722107	52.676029	238.047516	-564.372314	366.349457	470.666870	-508.167175	61.566418	480.697784	-886.254272	50.693363	271.851044	-753.461670	337.651672	291.915985	-511.194061	64.958771	444.103821	-560.141174	367.697632	417.022491	-693.054514	625.810148	437.376728	-703.280464	620.164384	279.146537	
